<svg width="55" height="65" viewBox="0 0 55 65" fill="none" xmlns="http://www.w3.org/2000/svg">
<path d="M39.5605 15.4677V5.71289C39.5605 2.5628 36.9977 0 33.8477 0H5.91797C2.76788 0 0.205078 2.5628 0.205078 5.71289V59.2871C0.205078 62.4372 2.76788 65 5.91797 65H33.8477C36.9977 65 39.5605 62.4372 39.5605 59.2871V49.5323C48.118 48.5819 54.7949 41.3066 54.7949 32.5C54.7949 23.6934 48.118 16.4181 39.5605 15.4677ZM24.8579 3.80859L23.5883 7.61719H16.1772L14.9076 3.80859H24.8579ZM35.752 59.2871C35.752 60.3371 34.8977 61.1914 33.8477 61.1914H5.91797C4.86794 61.1914 4.01367 60.3371 4.01367 59.2871V5.71289C4.01367 4.66286 4.86794 3.80859 5.91797 3.80859H10.893L12.998 10.1238C13.2574 10.9013 13.9851 11.4258 14.8047 11.4258H24.9609C25.7805 11.4258 26.5082 10.9013 26.7675 10.1238L28.8726 3.80859H33.8477C34.8977 3.80859 35.752 4.66286 35.752 5.71289V15.4677C27.1946 16.4181 20.5176 23.6934 20.5176 32.5C20.5176 41.3066 27.1946 48.5819 35.752 49.5323V59.2871ZM37.6562 45.8301C30.306 45.8301 24.3262 39.8502 24.3262 32.5C24.3262 25.1498 30.306 19.1699 37.6562 19.1699C45.0065 19.1699 50.9863 25.1498 50.9863 32.5C50.9863 39.8502 45.0065 45.8301 37.6562 45.8301Z" fill="#2E9ADB"/>
</svg>
